<svg width="19" height="19" viewBox="0 0 19 19" fill="none" xmlns="http://www.w3.org/2000/svg">
<path d="M6 5C3.15971 5 0.857169 7.30254 0.857169 10.1429V13.2164L0.251075 13.8225C0.00593178 14.0676 -0.0673968 14.4363 0.0652718 14.7566C0.19794 15.0769 0.510489 15.2857 0.857169 15.2857H11.1429C11.4896 15.2857 11.8021 15.0769 11.9348 14.7566C12.0675 14.4363 11.9941 14.0676 11.749 13.8225L11.1429 13.2164V10.1429C11.1429 7.30254 8.84032 5 6 5Z" fill="#67748E"/>
<path d="M5.99916 18.7145C4.57901 18.7145 3.42773 17.5633 3.42773 16.1431H8.57059C8.57059 17.5633 7.41937 18.7145 5.99916 18.7145Z" fill="#67748E"/>
<circle cx="13" cy="6" r="6" fill="#F5222D"/>
<path d="M10.4659 7.80682V7.22727L13.0227 3.18182H13.4432V4.07955H13.1591L11.2273 7.13636V7.18182H14.6705V7.80682H10.4659ZM13.2045 9V7.63068V7.3608V3.18182H13.875V9H13.2045Z" fill="white"/>
</svg>
